<?xml version="1.0" standalone="no"?>
<!DOCTYPE svg PUBLIC "-//W3C//DTD SVG 20010904//EN"
 "http://www.w3.org/TR/2001/REC-SVG-20010904/DTD/svg10.dtd">
<svg version="1.0" xmlns="http://www.w3.org/2000/svg"
 width="2000.000000pt" height="2000.000000pt" viewBox="0 0 2000.000000 2000.000000"
 preserveAspectRatio="xMidYMid meet">

<g transform="translate(0.000000,2000.000000) scale(0.100000,-0.100000)"
fill="#000000" stroke="none">
<path d="M3890 19833 c-305 -259 -753 -628 -1560 -1288 -1224 -1001 -1426
-1168 -2193 -1815 l-136 -115 0 -1253 c-1 -998 2 -1252 11 -1245 7 4 79 64
160 134 172 149 392 327 568 459 69 52 184 147 255 210 275 244 554 487 1235
1070 752 644 967 830 1315 1140 490 436 1079 941 1595 1366 140 116 316 260
390 322 251 208 713 577 1055 842 187 145 362 281 389 302 l49 38 -1469 -1
-1469 0 -195 -166z"/>
<path d="M8370 19968 c0 -18 11 -166 24 -328 42 -507 41 -490 19 -490 -34 0
-39 -16 -32 -97 18 -185 16 -180 65 -214 54 -37 80 -86 89 -166 7 -57 6 -60
-16 -66 -13 -4 -48 -7 -76 -7 l-53 0 0 -41 0 -41 73 7 72 7 1 -264 c2 -283 22
-676 55 -1068 30 -369 66 -696 78 -718 10 -20 52 -57 85 -77 14 -8 19 -46 33
-233 9 -122 14 -224 12 -226 -2 -2 -449 -36 -994 -75 -1818 -132 -1917 -139
-1975 -157 -216 -64 -390 -244 -445 -459 -8 -32 -15 -95 -15 -138 0 -152 889
-12389 905 -12452 36 -145 142 -291 269 -374 99 -65 191 -93 316 -98 146 -6
7250 510 7334 532 104 28 194 82 281 169 126 127 185 265 185 434 0 159 -889
12383 -905 12447 -56 219 -241 405 -460 460 -32 8 -100 15 -151 15 -50 0 -682
-43 -1404 -95 -722 -52 -1315 -93 -1318 -91 -2 3 -12 114 -22 248 l-18 243 26
35 c25 33 27 40 24 130 -10 350 -126 1675 -160 1843 -10 48 -16 90 -13 92 2 3
22 5 43 5 39 0 39 0 36 38 l-3 37 -50 0 -50 0 -12 70 c-16 93 -9 136 33 186
19 23 34 50 34 61 0 42 -22 214 -30 233 -5 11 -20 148 -35 305 -14 157 -29
313 -32 348 l-6 62 -908 0 -909 0 0 -32z m2372 -4084 c56 -19 115 -75 128
-123 13 -47 13 -142 -1 -178 -22 -59 -97 -115 -169 -127 -48 -8 -729 -57 -760
-55 -14 1 -32 -1 -40 -4 -8 -3 -186 -17 -395 -32 -209 -14 -530 -37 -714 -50
-368 -27 -400 -25 -469 25 -48 35 -68 76 -77 161 -7 75 8 125 52 171 47 49
106 66 269 77 82 6 173 13 202 17 l52 5 0 -41 c0 -56 25 -106 69 -136 48 -32
100 -32 616 6 226 17 448 33 495 35 378 22 419 39 430 183 l5 67 75 6 c140 10
186 9 232 -7z m-557 -1884 c557 -95 1068 -394 1528 -894 220 -238 387 -472
501 -701 124 -250 169 -423 169 -655 -1 -239 -37 -374 -178 -659 -51 -102
-136 -262 -189 -356 -122 -213 -257 -484 -365 -730 -162 -369 -274 -558 -410
-695 -270 -273 -646 -355 -1187 -260 -568 100 -1188 383 -1738 795 -396 296
-582 556 -739 1032 -189 573 -255 1082 -182 1399 50 216 172 413 354 570 46
40 171 136 280 215 108 79 333 249 501 378 168 129 352 266 410 304 238 157
477 246 746 277 119 13 362 4 499 -20z m3042 -6750 c46 -11 111 -34 145 -51
71 -35 168 -105 168 -120 0 -5 -34 -62 -75 -125 l-75 -114 -46 36 c-140 106
-318 148 -467 109 -32 -8 -69 -22 -83 -31 -36 -24 -57 -70 -50 -109 13 -65 61
-86 273 -120 300 -48 407 -86 482 -171 63 -72 84 -138 79 -260 -3 -89 -7 -108
-36 -166 -59 -121 -202 -217 -377 -254 -96 -20 -301 -23 -395 -5 -136 25 -300
94 -379 159 l-33 28 78 127 79 126 25 -24 c43 -41 142 -95 225 -122 104 -34
281 -39 357 -10 116 45 131 159 28 212 -16 8 -115 29 -220 45 -229 36 -266 45
-347 80 -184 83 -257 275 -180 480 27 75 136 183 228 227 167 80 392 100 596
53z m-1350 -90 c46 -11 111 -34 145 -51 71 -35 168 -105 168 -120 0 -5 -34
-62 -75 -125 l-75 -114 -46 36 c-140 106 -318 148 -467 109 -32 -8 -69 -22
-83 -31 -36 -24 -57 -70 -50 -109 13 -65 61 -86 273 -120 300 -48 407 -86 482
-171 63 -72 84 -138 79 -260 -3 -89 -7 -108 -36 -166 -59 -121 -202 -217 -377
-254 -96 -20 -301 -23 -395 -5 -136 25 -300 94 -379 159 l-33 28 78 127 79
126 25 -24 c43 -41 142 -95 225 -122 104 -34 281 -39 357 -10 116 45 131 159
28 212 -16 8 -115 29 -220 45 -229 36 -266 45 -347 80 -184 83 -257 275 -180
480 27 75 136 183 228 227 167 80 392 100 596 53z m-1063 -102 c3 -29 8 -92
11 -139 l7 -86 -79 -6 c-43 -3 -203 -14 -356 -23 l-279 -18 7 -136 c4 -74 10
-138 14 -141 3 -3 129 3 280 13 199 14 276 16 281 8 7 -11 23 -240 18 -246 -2
-1 -127 -10 -278 -20 -151 -9 -278 -20 -281 -23 -5 -5 9 -272 15 -278 1 -1
161 9 356 22 195 14 360 25 367 25 15 0 20 -34 28 -170 l7 -106 -549 -36
c-301 -20 -548 -36 -549 -35 -3 3 -93 1371 -91 1373 2 1 948 67 1044 73 19 1
22 -5 27 -51z m-1635 -93 c132 -32 238 -112 286 -218 51 -110 53 -267 5 -373
-25 -58 -94 -131 -157 -166 -29 -17 -53 -32 -53 -35 0 -3 83 -117 185 -253
101 -136 187 -254 190 -262 5 -13 -14 -16 -112 -22 -65 -3 -152 -9 -193 -12
l-75 -6 -164 242 -164 242 -106 -7 c-58 -4 -107 -8 -109 -9 -1 -2 5 -97 13
-212 8 -115 15 -227 15 -250 l0 -40 -172 -12 c-95 -6 -173 -10 -174 -9 -3 3
-93 1371 -91 1373 1 1 130 11 287 22 360 25 506 26 589 7z m-1380 -104 c172
-59 265 -177 292 -365 20 -151 -26 -293 -126 -385 -105 -95 -203 -126 -455
-143 -96 -6 -179 -14 -183 -18 -4 -4 -1 -102 8 -218 8 -116 15 -218 15 -225 0
-10 -42 -16 -177 -24 -98 -6 -178 -11 -179 -10 -3 3 -93 1371 -91 1373 1 1
130 11 287 22 355 26 520 24 609 -7z"/>
<path d="M9645 13765 c-124 -20 -271 -68 -388 -126 -161 -80 -200 -107 -658
-460 -124 -96 -322 -244 -439 -329 -353 -257 -461 -385 -520 -615 -68 -266 -3
-751 170 -1277 93 -281 180 -446 332 -625 112 -133 281 -271 548 -449 749
-498 1656 -742 2115 -569 250 94 386 265 604 757 121 274 263 560 379 763 136
239 267 504 300 606 106 330 47 641 -196 1033 -166 269 -453 587 -732 811
-293 236 -660 409 -1000 470 -130 23 -398 29 -515 10z m1345 -816 c-6 -11 -64
-102 -127 -202 -64 -100 -122 -197 -130 -216 -13 -30 -11 -83 17 -470 72
-1017 74 -1033 133 -1132 34 -58 101 -110 165 -130 63 -19 230 -23 294 -6 l57
15 5 -32 c15 -98 25 -310 16 -327 -22 -40 -205 -73 -373 -67 -98 4 -138 10
-202 32 -230 78 -395 248 -454 466 -27 102 -46 261 -71 605 -11 160 -24 303
-28 320 -9 34 26 86 -608 -912 -271 -429 -376 -585 -394 -592 -19 -8 -411 -41
-478 -41 -13 0 36 83 128 220 32 47 65 107 74 133 18 55 21 163 6 317 -5 58
-25 323 -45 590 -40 568 -42 586 -62 665 -19 78 -52 134 -108 183 -79 70 -174
90 -350 74 -62 -5 -102 -5 -106 1 -4 5 -10 68 -13 141 -4 72 -9 143 -12 157
-8 40 13 53 127 79 131 30 309 33 409 6 240 -65 446 -265 505 -491 17 -66 43
-315 75 -725 12 -145 25 -270 29 -277 6 -12 227 328 894 1377 68 107 135 202
148 212 19 14 64 20 209 31 102 8 207 15 233 16 45 1 47 0 37 -20z"/>
<path d="M8781 6699 c-57 -5 -106 -10 -107 -12 -2 -2 2 -81 8 -175 l11 -172
91 6 c251 17 304 31 341 95 27 46 26 143 -1 190 -42 72 -120 88 -343 68z"/>
<path d="M7390 6614 c-36 -2 -76 -7 -89 -10 l-24 -5 7 -112 c4 -62 9 -147 13
-189 l6 -77 81 5 c217 14 287 36 328 102 29 47 28 143 -1 200 -39 77 -116 97
-321 86z"/>
<path d="M13459 19852 c-1079 -1166 -1798 -2020 -2510 -2979 -256 -345 -342
-464 -338 -467 2 -1 542 37 1199 85 657 48 1216 88 1241 88 l47 1 423 528
c1299 1616 1743 2111 2564 2855 l40 36 -1265 0 -1265 0 -136 -147z"/>
<path d="M19219 17543 c-1198 -1203 -1698 -1746 -2261 -2455 -311 -391 -432
-565 -544 -782 -115 -224 -174 -420 -174 -580 1 -93 10 -130 74 -294 57 -147
130 -366 276 -827 175 -554 282 -811 438 -1053 l47 -72 170 -55 c500 -159 934
-260 2185 -510 289 -58 535 -108 548 -110 l22 -5 0 980 c0 539 -1 980 -3 980
-2 0 -52 9 -113 20 -60 12 -228 43 -374 70 -671 123 -1195 228 -1550 312 -118
27 -216 51 -217 52 -2 1 104 114 234 252 491 517 1341 1412 1675 1764 l348
365 0 1363 c0 749 -1 1362 -3 1362 -2 0 -352 -350 -778 -777z"/>
<path d="M5377 8983 c-89 -139 -296 -457 -804 -1231 -153 -233 -340 -518 -417
-635 -171 -262 -297 -453 -930 -1412 -275 -418 -594 -901 -707 -1073 l-206
-312 -126 258 c-170 347 -307 648 -557 1222 -645 1482 -1091 2393 -1548 3164
l-77 130 -3 -2175 -2 -2174 82 -175 c206 -439 410 -830 585 -1125 l96 -160 86
-33 c177 -66 444 -122 746 -157 72 -8 308 -28 525 -45 464 -35 561 -44 735
-72 157 -25 259 -20 360 15 246 85 522 299 788 611 454 531 968 1234 1489
2035 179 274 198 308 198 346 0 37 -215 3051 -222 3113 -2 18 -24 -9 -91 -115z"/>
<path d="M19755 4416 c-517 -348 -981 -633 -1350 -826 -66 -35 -246 -143 -400
-240 -386 -245 -1116 -696 -1815 -1122 -381 -232 -481 -294 -840 -523 -396
-253 -695 -437 -1365 -843 -285 -172 -924 -544 -1328 -773 l-149 -84 1803 -3
1802 -2 101 59 c56 32 259 150 451 261 1464 850 2323 1369 3143 1900 l192 125
0 1117 c0 615 -1 1118 -2 1117 -2 0 -111 -74 -243 -163z"/>
</g>
</svg>
